<svg id="_x33_0" enable-background="new 0 0 64 64" height="512" viewBox="0 0 64 64" width="512" xmlns="http://www.w3.org/2000/svg"><g><g><g><path d="m58 25v4l-6.08-2.66c-.53-6.46-4.13-12.05-9.33-15.3-3.07-1.93-6.7-3.04-10.59-3.04-10.48 0-19.07 8.07-19.92 18.34l-6.08 2.66v-4h.42c.99 0 1.85-.7 2.04-1.68.2-.98-.33-1.96-1.25-2.34l-.38-.16 2.3-5.54.39.16c.92.38 1.97.06 2.52-.76l.01-.01c.55-.83.44-1.93-.26-2.64l-.3-.29 4.25-4.25.29.3c.41.4.94.61 1.48.61.4 0 .81-.12 1.16-.35.83-.56 1.15-1.62.77-2.54l-.16-.38 5.54-2.3.16.39c.38.92 1.35 1.44 2.33 1.25l.01-.01c.98-.19 1.68-1.04 1.68-2.04v-.42h6v.42c0 1 .7 1.85 1.68 2.04h.01c.97.2 1.95-.33 2.33-1.25l.16-.38 5.54 2.3-.16.38c-.38.92-.06 1.98.77 2.54h.01c.82.55 1.92.45 2.62-.26l.3-.3 4.25 4.25-.3.3c-.71.7-.81 1.8-.26 2.62l.01.02c.55.82 1.6 1.14 2.52.76l.39-.16 2.3 5.54-.39.16c-.92.38-1.44 1.35-1.25 2.33l.01.01c.19.98 1.04 1.68 2.04 1.68z" fill="#fcd770"/></g><g><path d="m18 35.96c-1.22-1.21-2.89-1.96-4.75-1.96h-3.25-2.29c-.62 0-1.2.15-1.71.42v-5.42l6.08-2.66 9.92-4.34v15h-3.14l-.84-1.02c-.01-.01-.01-.01-.02-.02z" fill="#ccd1d9"/></g><g><path d="m50 34.22c-1.52.35-2.89 1.08-4 2.07-.12.12-.24.23-.36.35s-.23.24-.34.36h-3.3v-15l9.92 4.34 6.08 2.66v7.29c-1.11-.99-2.48-1.72-4-2.07-.64-.14-1.31-.22-2-.22s-1.36.08-2 .22z" fill="#ccd1d9"/></g><g><path d="m42 12v4l-20 3v-4z" fill="#ccd1d9"/></g><g><path d="m22 19v3 15h20v-15-6z" fill="#e6e9ed"/></g><g><path d="m34 22h4v4h-4z" fill="#69d6f4"/></g><g><path d="m38 30v5.53c-1.06-.95-2.46-1.53-4-1.53v-4z" fill="#69d6f4"/></g><g><path d="m30 30v4c-1.54 0-2.94.58-4 1.53v-5.53z" fill="#69d6f4"/></g><g><path d="m26 22h4v4h-4z" fill="#69d6f4"/></g><g><path d="m8.56 57.58 3.44 4.42h-10v-2.46c0-1.63.65-3.19 1.8-4.34.55-.55 1.2-.99 1.91-1.29z" fill="#fcd770"/></g><g><path d="m22 62h-10l3.44-4.42 2.85-3.67c.71.3 1.36.74 1.91 1.29 1.15 1.15 1.8 2.71 1.8 4.34z" fill="#fcd770"/></g><g><path d="m15.44 57.58-3.44 4.42-3.44-4.42 3.44-2.58z" fill="#b4dd7f"/></g><g><path d="m18.29 53.91-2.85 3.67-3.44-2.58 3-2 2.35.59c.32.08.64.19.94.32z" fill="#a0d468"/></g><g><path d="m12 55-3.44 2.58-2.85-3.67c.3-.13.62-.24.94-.32l2.35-.59z" fill="#a0d468"/></g><g><path d="m42 59.54v2.46h-10l3.44-4.42 2.85-3.67c.71.3 1.36.74 1.91 1.29 1.15 1.15 1.8 2.71 1.8 4.34z" fill="#b4dd7f"/></g><g><path d="m28.56 57.58 3.44 4.42h-10v-2.46c0-1.63.65-3.19 1.8-4.34.55-.55 1.2-.99 1.91-1.29z" fill="#b4dd7f"/></g><g><path d="m35.44 57.58-3.44 4.42-3.44-4.42 3.44-2.58z" fill="#ff826e"/></g><g><path d="m38.29 53.91-2.85 3.67-3.44-2.58 3-2 2.35.59c.32.08.64.19.94.32z" fill="#fc6e51"/></g><g><path d="m32 55-3.44 2.58-2.85-3.67c.3-.13.62-.24.94-.32l2.35-.59z" fill="#fc6e51"/></g><g><path d="m62 59.54v2.46h-10l3.89-5 2.4-3.09c.63.27 1.2.64 1.7 1.1.07.06.14.12.21.19 1.15 1.15 1.8 2.71 1.8 4.34z" fill="#ff826e"/></g><g><path d="m48.11 57 3.89 5h-10v-2.46c0-1.63.65-3.19 1.8-4.34.07-.07.14-.13.21-.19.5-.46 1.07-.83 1.7-1.1z" fill="#ff826e"/></g><g><path d="m55.89 57-3.89 5-3.89-5z" fill="#b4dd7f"/></g><g><path d="m17 44v2c0 .34-.03.68-.1 1-.2.98-.68 1.86-1.36 2.54-.35.35-.75.64-1.19.87l-2.35.59c-.85 0-1.65-.21-2.35-.59-1.58-.84-2.65-2.5-2.65-4.41v-1.88c0-.84.26-1.62.71-2.27.54-.77 1.34-1.36 2.31-1.6.12.99.97 1.75 1.98 1.75h3c1.1 0 2 .9 2 2z" fill="#f0d0b4"/></g><g><path d="m12 51 2.35-.59.65 2.59-3 2-3-2 .65-2.59c.7.38 1.5.59 2.35.59z" fill="#f0d0b4"/></g><g><path d="m37 44v2c0 .34-.03.68-.1 1-.2.98-.68 1.86-1.36 2.54-.35.35-.75.64-1.19.87l-2.35.59c-.85 0-1.65-.21-2.35-.59-1.3-.69-2.25-1.93-2.55-3.41-.07-.32-.1-.66-.1-1v-1.88c0-1.83 1.24-3.42 3.02-3.87.12.99.97 1.75 1.98 1.75h3c1.1 0 2 .9 2 2z" fill="#f0d0b4"/></g><g><path d="m29 53 .65-2.59c.7.38 1.5.59 2.35.59l2.35-.59.65 2.59-3 2z" fill="#f0d0b4"/></g><g><path d="m50.7 40.07c.53.71 1.33 1.22 2.27 1.35l2.31.33c.99.15 1.72.99 1.72 1.98v2.27c0 1.38-.56 2.63-1.46 3.54-.35.35-.75.64-1.19.87-.7.38-1.5.59-2.35.59s-1.65-.21-2.35-.59c-1.58-.84-2.65-2.5-2.65-4.41v-1.88c0-1.83 1.25-3.43 3.03-3.88l.66-.16z" fill="#f0d0b4"/></g><g><path d="m48.11 57-2.4-3.09c.3-.13.62-.24.94-.32l.6-.15c1.08-.27 1.92-1.11 2.19-2.19l.21-.84c.7.38 1.5.59 2.35.59s1.65-.21 2.35-.59l.21.84c.27 1.08 1.11 1.92 2.19 2.19l.6.15c.32.08.64.19.94.32l-2.4 3.09z" fill="#f0d0b4"/></g><g><path d="m46.65 53.59c-.32.08-.64.19-.94.32-.63.27-1.2.64-1.7 1.1l-.01-.01-.5-4.03c-.33-2.64-.5-5.31-.5-7.97 0-1.95.62-3.75 2.3-6 .11-.12.22-.24.34-.36s.24-.23.36-.35c1.11-.99 2.48-1.72 4-2.07.64-.14 1.31-.22 2-.22s1.36.08 2 .22c1.52.35 2.89 1.08 4 2.07.12.12.24.23.36.35 1.63 1.62 2.64 3.88 2.64 6.36 0 2.66-.17 5.33-.5 7.97l-.5 4.03-.01.01c-.5-.46-1.07-.83-1.7-1.1-.3-.13-.62-.24-.94-.32l-.6-.15c-1.08-.27-1.92-1.11-2.19-2.19l-.21-.84c.44-.23.84-.52 1.19-.87.9-.91 1.46-2.16 1.46-3.54v-2.27c0-.99-.73-1.83-1.72-1.98l-2.31-.33c-.94-.13-1.74-.64-2.27-1.35l-.01.01-.66.16c-1.78.45-3.03 2.05-3.03 3.88v1.88c0 1.91 1.07 3.57 2.65 4.41l-.21.84c-.27 1.08-1.11 1.92-2.19 2.19z" fill="#b27946"/></g><g><path d="m10.02 40.25c-.97.24-1.77.83-2.31 1.6l-1.66-.83c-.45-.22-.84-.53-1.16-.9-.56-.66-.89-1.51-.89-2.41 0-1.43.81-2.68 2-3.29.51-.27 1.09-.42 1.71-.42h2.29 3.25c1.86 0 3.53.75 4.75 1.96.01.01.01.01.02.02l.84 1.02c1.1 2.88 1.14 3.31 1.14 3.75 0 .83-.13 1.65-.39 2.43-.4 1.2-1.09 2.27-2 3.14l-.71.68c.07-.32.1-.66.1-1v-2c0-1.1-.9-2-2-2h-3c-1.01 0-1.86-.76-1.98-1.75z" fill="#656d78"/></g><g><path d="m7 44.12v1.88l-.59-.2c-.72-.24-1.32-.7-1.75-1.28-.42-.58-.66-1.3-.66-2.06 0-.87.32-1.7.89-2.34.32.37.71.68 1.16.9l1.66.83c-.45.65-.71 1.43-.71 2.27z" fill="#656d78"/></g><g><path d="m30.02 40.25c-1.78.45-3.02 2.04-3.02 3.87v1.88c0 .34.03.68.1 1l-.71-.68c-.91-.87-1.6-1.94-2-3.14-.26-.78-.39-1.6-.39-2.43v-.75c0-1.09.29-2.12.81-3 .31-.55.72-1.05 1.19-1.47 1.06-.95 2.46-1.53 4-1.53h4c1.54 0 2.94.58 4 1.53.47.42.88.92 1.19 1.47.52.88.81 1.91.81 3v.75c0 .83-.13 1.65-.39 2.43-.4 1.2-1.09 2.27-2 3.14l-.71.68c.07-.32.1-.66.1-1v-2c0-1.1-.9-2-2-2h-3c-1.01 0-1.86-.76-1.98-1.75z" fill="#656d78"/></g></g><g><path d="m61.051 54.652.445-3.558c.334-2.678.504-5.401.504-8.094 0-2.79-1.151-5.314-3-7.129v-11.871h-1.423c-.514 0-.959-.366-1.062-.887-.1-.502.172-1.01.646-1.206l1.314-.545-3.062-7.391-1.316.545c-.478.197-1.024.028-1.318-.41-.285-.427-.229-1 .135-1.364l1.005-1.008-5.654-5.655-1.009 1.007c-.363.365-.938.419-1.37.129-.43-.288-.599-.843-.4-1.32l.544-1.31-7.395-3.062-.539 1.308c-.197.478-.713.749-1.226.649-.504-.098-.87-.543-.87-1.057v-1.423h-8v1.423c0 .514-.366.959-.887 1.062-.497.099-1.01-.172-1.205-.645l-.543-1.316-7.395 3.062.544 1.309c.198.479.029 1.034-.4 1.322-.432.288-1.008.232-1.377-.135l-1.002-1-5.654 5.655 1 1.003c.366.367.423.945.131 1.382-.285.426-.835.595-1.31.397l-1.316-.545-3.062 7.391 1.303.541c.48.199.755.713.654 1.223-.099.503-.546.871-1.063.871h-1.418v9.869c-1.206.853-2 2.252-2 3.839 0 .867.237 1.69.659 2.401-.428.704-.659 1.516-.659 2.351 0 1.934 1.224 3.643 3.049 4.273.208 1.699 1.128 3.177 2.453 4.132l-.328 1.31-1.768.442c-1.256.313-2.402.963-3.316 1.877-1.348 1.349-2.09 3.142-2.09 5.048v3.458h62v-3.458c0-1.835-.694-3.561-1.949-4.89zm-45.865-.574 1.431.358-1.365 1.755-1.522-1.142zm-3.186 2.172 2.025 1.519-2.025 2.603-2.025-2.603zm6.567-1.064c.333.207.648.444.928.724.971.97 1.505 2.26 1.505 3.632v1.458h-6.956zm4.433 4.356c0-1.373.534-2.663 1.505-3.633.28-.28.595-.517.928-.724l4.523 5.815h-6.956zm3-15.419v.137c-.27-.438-.494-.904-.657-1.393-.228-.682-.343-1.393-.343-2.115v-.752c0-2.757 2.243-5 5-5h4c2.757 0 5 2.243 5 5v.752c0 .721-.115 1.433-.343 2.115-.163.489-.387.956-.657 1.393v-.26c0-1.654-1.346-3-3-3h-3c-.552 0-1-.449-1-1s.448-1 1-1h1v-2h-1c-1.492 0-2.733 1.095-2.962 2.523-1.821.776-3.038 2.571-3.038 4.6zm3-11.043c-.706.102-1.378.308-2 .605v-2.685h2zm8 .605c-.622-.297-1.294-.503-2-.605v-2.08h2zm-9 10.438c0-1.068.563-2.029 1.438-2.563.528.863 1.479 1.44 2.562 1.44h3c.552 0 1 .449 1 1v2c0 2.206-1.794 4-4 4s-4-1.794-4-4zm4 12.127 2.025 1.519-2.025 2.603-2.025-2.603zm3.253-.06-1.522-1.142 1.456-.971 1.431.358zm-3.253-4.19c.576 0 1.132-.086 1.66-.239l.199.798-1.859 1.239-1.859-1.239.199-.798c.528.153 1.084.239 1.66.239zm-3.186 2.078 1.456.97-1.522 1.142-1.365-1.755zm9.753 1.108c.333.207.648.444.928.724.971.97 1.505 2.26 1.505 3.632v1.458h-6.956zm4.433 4.356c0-1.373.534-2.663 1.505-3.633.28-.28.595-.517.928-.724l4.523 5.815h-6.956zm7.155-1.542h3.69l-1.845 2.372zm5.246-2h-6.801l-1.217-1.565.114-.029c1.347-.336 2.403-1.342 2.827-2.65.532.156 1.093.244 1.676.244s1.145-.088 1.678-.243c.423 1.308 1.479 2.313 2.825 2.65l.115.029zm-3.401-6c-2.206 0-4-1.794-4-4v-1.877c0-1.379.935-2.576 2.273-2.91l.082-.021c.657.642 1.514 1.085 2.473 1.222l2.313.331c.49.069.859.495.859.989v2.266c0 2.206-1.794 4-4 4zm8-7c0 2.61-.164 5.25-.488 7.845l-.301 2.405c-.511-.272-1.051-.491-1.617-.633l-.605-.151c-.718-.18-1.275-.737-1.454-1.455l-.037-.146c1.512-1.09 2.502-2.862 2.502-4.865v-2.266c0-1.483-1.107-2.76-2.575-2.969l-2.313-.331c-1.205-.172-2.112-1.218-2.112-2.434v-1h-2v1c0 .501.085.987.242 1.442-1.934.724-3.242 2.575-3.242 4.681v1.877c0 2.003.99 3.775 2.503 4.866l-.036.146c-.18.718-.737 1.275-1.456 1.455l-.604.151c-.567.142-1.107.361-1.618.633l-.301-2.405c-.324-2.596-.488-5.236-.488-7.846 0-4.411 3.589-8 8-8s8 3.589 8 8zm-50.556-19.487c.245-1.245-.302-2.498-1.329-3.179l1.574-3.799c1.204.249 2.479-.25 3.189-1.309.707-1.057.681-2.427-.011-3.449l2.908-2.908c1.023.692 2.394.716 3.449.01 1.056-.705 1.556-1.979 1.309-3.189l3.797-1.573c.678 1.028 1.932 1.573 3.186 1.327 1.247-.246 2.197-1.232 2.429-2.444h4.109c.232 1.212 1.184 2.198 2.438 2.445 1.245.245 2.495-.302 3.175-1.329l3.799 1.573c-.247 1.209.254 2.484 1.314 3.193 1.056.707 2.425.681 3.445-.012l2.905 2.905c-.693 1.021-.719 2.391-.005 3.458.705 1.052 1.979 1.552 3.185 1.301l1.573 3.797c-1.027.677-1.575 1.929-1.327 3.185.245 1.246 1.23 2.196 2.443 2.429v1.526l-4.167-1.823c-1.18-10.502-10.202-18.648-20.832-18.648s-19.652 8.146-20.833 18.648l-4.167 1.823v-1.527c1.213-.234 2.198-1.185 2.444-2.431zm11.556-2.167-7.694 3.366c1.573-8.937 9.47-15.712 18.694-15.712 3.137 0 6.117.791 8.751 2.176l-19.751 2.963zm2-5.485 18-2.7v1.978l-18 2.7zm20-3.284c3.956 2.839 6.815 7.143 7.694 12.135l-7.694-3.366zm-36 17.077 14-6.125v13.471h2v-17.139l18-2.7v19.839h2v-13.471l14 6.125v4.699c-.628-.365-1.295-.67-2-.892v-2.461h-2v2.051c-.329-.033-.662-.051-1-.051s-.671.018-1 .051v-4.051h-2v4.461c-.705.222-1.372.527-2 .892v-7.353h-2v8.871c-1.849 1.816-3 4.339-3 7.129 0 2.693.17 5.416.504 8.093l.445 3.558c-.366.388-.682.809-.949 1.258-.302-.508-.662-.986-1.091-1.414-.914-.915-2.061-1.564-3.316-1.877l-1.768-.442-.328-1.31c1.113-.802 1.938-1.974 2.298-3.337l.508-.484c1.025-.976 1.804-2.202 2.251-3.544.296-.887.446-1.812.446-2.749v-.752c0-1.902-.765-3.627-2-4.889v-6.111h-6v4h-2v-4h-6v6.111c-1.235 1.263-2 2.988-2 4.889v.752c0 .937.15 1.862.446 2.747.447 1.343 1.226 2.569 2.25 3.544l.509.485c.36 1.362 1.185 2.534 2.298 3.337l-.328 1.31-1.768.442c-1.256.313-2.402.963-3.316 1.877-.429.429-.789.906-1.091 1.414-.302-.508-.662-.986-1.091-1.414-.914-.915-2.061-1.564-3.316-1.877l-1.768-.442-.328-1.31c1.113-.802 1.938-1.974 2.298-3.337l.508-.484c1.025-.976 1.804-2.202 2.251-3.544.296-.886.446-1.811.446-2.748 0-1.992-.761-3.804-2-5.179v-8.573h-2v6.973c-.619-.344-1.292-.602-2-.766v-4.207h-2v4h-2v-2h-2v2h-1.292c-.242 0-.475.036-.708.072zm.708 5.346h5.54c3.172 0 5.752 2.581 5.752 5.752 0 .721-.115 1.433-.343 2.115-.163.489-.387.956-.657 1.393v-.26c0-1.654-1.346-3-3-3h-3c-.552 0-1-.449-1-1s.448-1 1-1h1v-2h-1c-1.492 0-2.733 1.095-2.962 2.523-.604.257-1.133.634-1.581 1.087l-.96-.48c-.924-.461-1.497-1.389-1.497-2.422 0-1.493 1.215-2.708 2.708-2.708zm-2.708 7.46c0-.28.052-.553.141-.813.149.097.3.191.461.272l.756.378c-.224.571-.358 1.184-.358 1.826v.347c-.618-.467-1-1.203-1-2.01zm3 1.663c0-1.068.563-2.029 1.438-2.563.528.863 1.479 1.44 2.562 1.44h3c.552 0 1 .449 1 1v2c0 2.206-1.794 4-4 4s-4-1.794-4-4zm4 7.877c.576 0 1.132-.086 1.66-.239l.199.798-1.859 1.239-1.859-1.239.199-.798c.528.153 1.084.239 1.66.239zm-3.186 2.078 1.456.97-1.523 1.142-1.365-1.755zm-5.814 5.464c0-1.373.534-2.663 1.505-3.633.28-.28.595-.517.928-.724l4.523 5.815h-6.956zm58 1.458h-6.956l4.523-5.814c.333.207.648.444.928.724.971.97 1.505 2.26 1.505 3.632z"/><path d="m31 21h-6v6h6zm-2 4h-2v-2h2z"/><path d="m39 21h-6v6h6zm-2 4h-2v-2h2z"/></g></g></svg>