<?xml version="1.0" encoding="UTF-8" standalone="no"?>
<svg
   xmlns:dc="http://purl.org/dc/elements/1.1/"
   xmlns:cc="http://creativecommons.org/ns#"
   xmlns:rdf="http://www.w3.org/1999/02/22-rdf-syntax-ns#"
   xmlns:svg="http://www.w3.org/2000/svg"
   xmlns="http://www.w3.org/2000/svg"
   xmlns:xlink="http://www.w3.org/1999/xlink"
   xmlns:sodipodi="http://sodipodi.sourceforge.net/DTD/sodipodi-0.dtd"
   xmlns:inkscape="http://www.inkscape.org/namespaces/inkscape"
   width="270.93332mm"
   height="270.93332mm"
   viewBox="0 0 270.93332 270.93332"
   version="1.1"
   id="svg946"
   inkscape:version="1.0.2 (e86c8708, 2021-01-15)"
   sodipodi:docname="logo.svg">
  <defs
     id="defs940">
    <linearGradient
       inkscape:collect="always"
       xlink:href="#linearGradient4110"
       id="linearGradient4116"
       x1="621.43085"
       y1="-45.504421"
       x2="456.25"
       y2="1093.1155"
       gradientUnits="userSpaceOnUse"
       gradientTransform="matrix(0.26458333,0,0,0.26487305,17.235716,-56.847617)" />
    <linearGradient
       id="linearGradient4110">
      <stop
         style="stop-color:#f9f9f9;stop-opacity:1"
         offset="0"
         id="stop4112" />
      <stop
         style="stop-color:#ececec;stop-opacity:1"
         offset="1"
         id="stop4114" />
    </linearGradient>
    <linearGradient
       inkscape:collect="always"
       xlink:href="#linearGradient4110"
       id="linearGradient992"
       gradientUnits="userSpaceOnUse"
       gradientTransform="matrix(0.26458333,0,0,0.26487305,17.235716,-56.847617)"
       x1="621.43085"
       y1="-45.504421"
       x2="456.25"
       y2="1093.1155" />
  </defs>
  <sodipodi:namedview
     id="base"
     pagecolor="#ffffff"
     bordercolor="#666666"
     borderopacity="1.0"
     inkscape:pageopacity="0.0"
     inkscape:pageshadow="2"
     inkscape:zoom="0.35"
     inkscape:cx="566.28571"
     inkscape:cy="423.42857"
     inkscape:document-units="mm"
     inkscape:current-layer="layer1"
     inkscape:document-rotation="0"
     showgrid="false"
     inkscape:window-width="1252"
     inkscape:window-height="941"
     inkscape:window-x="0"
     inkscape:window-y="25"
     inkscape:window-maximized="0" />
  <metadata
     id="metadata943">
    <rdf:RDF>
      <cc:Work
         rdf:about="">
        <dc:format>image/svg+xml</dc:format>
        <dc:type
           rdf:resource="http://purl.org/dc/dcmitype/StillImage" />
        <dc:title></dc:title>
      </cc:Work>
    </rdf:RDF>
  </metadata>
  <g
     inkscape:label="Layer 1"
     inkscape:groupmode="layer"
     id="layer1"
     transform="translate(43.996427,-36.134525)">
    <g
       id="g990"
       transform="translate(-61.232143,92.982143)">
      <rect
         style="color:#000000;display:inline;overflow:visible;visibility:visible;fill:url(#linearGradient992);fill-opacity:1;fill-rule:nonzero;stroke:none;stroke-width:0.529167;marker:none;enable-background:accumulate"
         id="rect4108"
         width="270.93332"
         height="270.93332"
         x="17.235716"
         y="-56.847618"
         ry="46.869049"
         rx="46.869049" />
      <g
         id="g822"
         transform="matrix(0.30342792,0,0,0.30342792,-408.35824,248.25676)"
         style="display:inline">
        <path
           d="m 1580.0512,-580.3933 -21.4494,10.39751 21.9581,9.45236 c 9.6709,4.14448 17.0873,9.81587 21.9587,16.86874 5.3807,7.63456 9.2345,16.43247 11.5609,26.1684 2.472,10.40482 3.9994,21.74761 4.4351,33.81747 0.5072,12.57888 0.7281,25.37583 0.7281,38.17283 0,31.33085 2.6175,54.53262 8.0708,70.8924 6.3983,19.48631 19.9949,30.16745 38.2453,30.16745 4.7264,0 8.5071,3.86091 8.5071,8.50709 v 36.43509 h -18.9773 c -19.4862,0 -34.6828,-3.13383 -45.2256,-9.37961 -10.6158,-6.32578 -18.1779,-14.33117 -23.2674,-24.43061 -5.3076,-10.76114 -8.7977,-23.12188 -10.3246,-36.94405 -1.5995,-14.60749 -2.4726,-29.87662 -2.4726,-45.36388 v -46.60723 c 0,-16.06891 -1.8175,-30.68365 -5.3801,-43.48065 -3.8539,-13.89491 -10.4703,-25.30314 -19.8499,-33.81022 -5.3807,-4.95157 -12.2159,-8.65253 -20.2861,-10.84109 -6.7621,-1.88317 -11.2703,-7.62731 -11.2703,-14.25117 v -11.55366 c 0,-6.54392 4.5082,-12.288 11.2703,-14.25117 7.7796,-2.25405 14.3966,-5.88953 19.6317,-10.84109 9.1615,-8.50709 15.6323,-19.91531 19.1224,-33.95566 3.1994,-12.72426 4.8719,-27.2663 5.017,-43.10988 0.2181,-15.1237 0.4363,-30.53827 0.8,-46.25091 0.289,-15.33458 1.3808,-30.6764 3.1264,-45.50927 1.6714,-13.81497 5.4532,-26.17566 11.1971,-36.64592 5.5264,-10.10675 13.6697,-18.11213 24.7213,-24.43061 11.1247,-6.32578 26.9757,-9.52505 47.1893,-9.52505 h 14.9784 v 35.91884 c 0,4.72612 -3.7813,8.50708 -8.5071,8.50708 -19.6322,0 -33.6651,10.47027 -39.5546,29.37487 -4.8714,15.6327 -7.1983,36.79136 -7.1983,64.7848 0,11.91718 -0.2182,24.43056 -0.5072,37.07487 -0.289,12.14987 -1.7461,24.14704 -4.2176,35.56257 -2.3994,10.83378 -6.3983,20.86778 -11.8515,29.73113 -5.0896,8.22357 -12.3609,14.54205 -22.1768,19.34823"
           style="fill:#19b2a7;fill-opacity:1;fill-rule:nonzero;stroke:none;stroke-width:0.7271"
           id="path208" />
        <path
           d="m 2179.2561,-576.17613 v 11.55366 c 0,6.62386 -4.5082,12.368 -11.2703,14.25117 -8.0708,2.18856 -14.9054,5.88952 -20.3592,10.84109 -9.3065,8.50708 -15.9235,19.91531 -19.7768,33.73753 -3.5626,12.86969 -5.3807,27.48443 -5.3807,43.55334 v 46.60723 c 0,15.48726 -0.872,30.75639 -2.472,45.36388 -1.5274,13.82217 -5.017,26.18291 -10.3252,36.94405 -5.0895,10.09944 -12.6515,18.10483 -23.2669,24.43061 -10.5428,6.24578 -25.7394,9.37961 -45.2255,9.37961 h -18.9774 v -36.43509 c 0,-4.64618 3.7808,-8.50709 8.5071,-8.50709 18.2499,0 31.8465,-10.68114 38.2454,-30.16745 5.4533,-16.35978 8.0708,-39.56155 8.0708,-70.8924 0,-12.797 0.2182,-25.59395 0.7275,-38.17283 0.4362,-12.06986 1.9643,-23.41265 4.4351,-33.81747 2.3269,-9.73593 6.1802,-18.53384 11.4884,-26.1684 4.9439,-7.05287 12.3604,-12.72426 22.0312,-16.86874 l 21.9586,-9.45236 -21.4498,-10.39751 c -9.8159,-4.80618 -17.0867,-11.12466 -22.1768,-19.34823 -5.4527,-8.86335 -9.4521,-18.89735 -11.8516,-29.73113 -2.4719,-11.41553 -3.9263,-23.4127 -4.217,-35.56257 -0.289,-12.64431 -0.5071,-25.15769 -0.5071,-37.07487 0,-27.99344 -2.3269,-49.1521 -7.1983,-64.7848 -5.8896,-18.9046 -19.9224,-29.37487 -39.5542,-29.37487 -4.7263,0 -8.5071,-3.78096 -8.5071,-8.50708 v -35.91884 h 14.978 c 20.2136,0 36.0646,3.19927 47.1892,9.52505 11.0516,6.31848 19.1955,14.32386 24.7213,24.43061 5.7439,10.47026 9.5252,22.83095 11.1972,36.64592 1.7461,14.83287 2.8357,30.17469 3.1269,45.50927 0.3653,15.71264 0.5807,31.12721 0.7994,46.25091 0.1418,15.84358 1.8181,30.38562 5.017,43.10988 3.4901,14.04035 9.9615,25.44857 19.123,33.95566 5.2351,4.95156 11.8515,8.58704 19.6317,10.84109 6.7621,1.96317 11.2703,7.70725 11.2703,14.25117"
           style="fill:#19b2a7;fill-opacity:1;fill-rule:nonzero;stroke:none;stroke-width:0.7271"
           id="path210" />
        <path
           d="m 1823.0998,-433.83145 3.3881,-3.38827 c 7.0238,-7.03111 8.2088,-17.85763 3.2719,-26.4956 -2.8504,-4.98793 -4.3915,-9.91043 -4.6243,-14.77474 -0.4199,-9.03785 1.9479,-18.15571 7.1399,-27.37532 5.1773,-9.21966 12.3391,-18.38114 21.4351,-27.47718 9.1108,-9.1106 18.461,-18.46115 28.0593,-28.05889 9.6048,-9.60499 18.4462,-19.46449 26.5535,-29.57849 8.085,-10.11394 13.9309,-20.57695 17.5083,-31.41078 3.5778,-10.82653 3.832,-22.16931 0.7852,-34.02836 -3.0538,-11.84448 -11.1246,-24.32879 -24.2195,-37.42393 l -18.1267,-18.12664 -8.1581,7.79456 c -3.7883,3.57734 -5.6784,14.09848 0,23.57265 0,0 9.3431,18.44653 3.2649,30.57459 -6.0935,12.12805 -38.3986,47.82875 -56.4085,65.83908 -7.802,7.80176 -15.4071,15.69808 -22.8023,23.70347 -7.4017,8.00539 -13.6473,16.16347 -18.7445,24.48155 -5.0895,8.31077 -8.4198,16.98511 -9.9975,26.01571 l -0.054,0.26884 c -2.3269,13.77854 3.1411,27.7462 13.066,37.58388 l 38.6457,38.30371"
           style="fill:#222744;fill-opacity:1;fill-rule:nonzero;stroke:none;stroke-width:0.7271"
           id="path212" />
        <path
           d="m 1762.5102,-556.13719 3.3881,-3.38833 c 7.0238,-7.03106 8.2017,-17.85758 3.272,-26.4883 -2.8499,-4.98793 -4.3915,-9.91768 -4.6244,-14.77473 -0.4308,-9.03786 1.9479,-18.16296 7.1405,-27.38263 5.1768,-9.21236 12.3386,-18.37384 21.4346,-27.47713 9.1108,-9.10335 18.4615,-18.46115 28.0592,-28.05889 9.6048,-9.60499 18.4468,-19.45723 26.5536,-29.57849 8.0855,-10.10669 13.9314,-20.5697 17.5088,-31.40353 3.5773,-10.82652 3.832,-22.16931 0.7852,-34.02835 -3.0538,-11.85174 -11.1246,-24.3288 -24.2201,-37.42388 l -18.1266,-18.12664 -8.1581,7.79451 c -3.7955,3.57008 -5.6785,14.09123 0,23.56534 0,0 9.3436,18.45384 3.2649,30.58189 -6.093,12.12805 -38.3981,47.82876 -56.4086,65.83183 -7.802,7.80176 -15.4071,15.70539 -22.8017,23.70347 -7.4023,8.0127 -13.6479,16.16347 -18.745,24.4888 -5.0896,8.31077 -8.4199,16.9778 -9.9975,26.0084 l -0.054,0.26885 c -2.3193,13.7859 3.1487,27.74619 13.0731,37.58388 l 38.6456,38.30376"
           style="fill:#222744;fill-opacity:1;fill-rule:nonzero;stroke:none;stroke-width:0.7271"
           id="path214" />
        <path
           d="m 1889.8548,-302.55328 3.3881,-3.38828 c 7.0385,-7.03836 8.2093,-17.85763 3.2796,-26.48829 -2.8505,-4.99518 -4.3921,-9.91768 -4.6244,-14.78199 -0.4308,-9.03791 1.9414,-18.16301 7.1329,-27.37537 5.1838,-9.21967 12.3385,-18.38115 21.4422,-27.47719 9.1031,-9.11054 18.4609,-18.46109 28.0587,-28.05883 9.6048,-9.60499 18.4467,-19.46449 26.5464,-29.57849 8.0927,-10.10669 13.9315,-20.57695 17.5088,-31.41078 3.5844,-10.81928 3.8391,-22.16937 0.7913,-34.0211 -3.0538,-11.85174 -11.1247,-24.33611 -24.2196,-37.42394 l -18.1266,-18.13389 -8.1581,7.79451 c -3.7884,3.57734 -5.6861,14.09853 0,23.57265 0,0 9.3431,18.45384 3.2649,30.58189 -6.0864,12.12805 -38.4057,47.8215 -56.4086,65.83177 -7.7949,7.80182 -15.4005,15.69814 -22.8022,23.70353 -7.3947,8.00539 -13.655,16.16347 -18.7445,24.48149 -5.0825,8.31077 -8.4199,16.98511 -9.9975,26.01571 l -0.054,0.26885 c -2.3122,13.78584 3.1481,27.74619 13.0731,37.58388 l 38.6385,38.30371"
           style="fill:#222744;fill-opacity:1;fill-rule:nonzero;stroke:none;stroke-width:0.7271"
           id="path216" />
      </g>
    </g>
  </g>
</svg>
